<?xml version="1.0" encoding="utf-8" standalone="no"?>
<!DOCTYPE svg PUBLIC "-//W3C//DTD SVG 1.1//EN"
  "http://www.w3.org/Graphics/SVG/1.1/DTD/svg11.dtd">
<svg xmlns:xlink="http://www.w3.org/1999/xlink" width="184.217438pt" height="180.72pt" viewBox="0 0 184.217438 180.72" xmlns="http://www.w3.org/2000/svg" version="1.1">
 <metadata>
  <rdf:RDF xmlns:dc="http://purl.org/dc/elements/1.1/" xmlns:cc="http://creativecommons.org/ns#" xmlns:rdf="http://www.w3.org/1999/02/22-rdf-syntax-ns#">
   <cc:Work>
    <dc:type rdf:resource="http://purl.org/dc/dcmitype/StillImage"/>
    <dc:date>2025-09-19T12:20:21.090714</dc:date>
    <dc:format>image/svg+xml</dc:format>
    <dc:creator>
     <cc:Agent>
      <dc:title>Matplotlib v3.10.6, https://matplotlib.org/</dc:title>
     </cc:Agent>
    </dc:creator>
   </cc:Work>
  </rdf:RDF>
 </metadata>
 <defs>
  <style type="text/css">*{stroke-linejoin: round; stroke-linecap: butt}</style>
 </defs>
 <g id="figure_1">
  <g id="patch_1">
   <path d="M 0 180.72 
L 184.217438 180.72 
L 184.217438 0 
L 0 0 
z
" style="fill: #ffffff"/>
  </g>
  <g id="axes_1">
   <g id="line2d_1">
    <path d="M 37.499813 90.36 
L 148.379813 90.36 
" clip-path="url(#p63bce831bd)" style="fill: none; stroke: #d3d3d3; stroke-width: 0.5; stroke-linecap: square"/>
   </g>
   <g id="line2d_2">
    <path d="M 92.939813 145.8 
L 92.939813 34.92 
" clip-path="url(#p63bce831bd)" style="fill: none; stroke: #d3d3d3; stroke-width: 0.5; stroke-linecap: square"/>
   </g>
   <g id="patch_2">
    <path d="M 122.983711 43.5813 
L 122.538849 44.171652 
L 129.180302 49.176346 
L 129.625164 48.585994 
z
" clip-path="url(#p63bce831bd)" style="fill: #590008"/>
   </g>
   <g id="patch_3">
    <path d="M 122.538849 44.171652 
L 122.093988 44.762003 
L 128.735441 49.766697 
L 129.180302 49.176346 
z
" clip-path="url(#p63bce831bd)" style="fill: #5b0108"/>
   </g>
   <g id="patch_4">
    <path d="M 122.093988 44.762003 
L 121.649126 45.352355 
L 128.290579 50.357048 
L 128.735441 49.766697 
z
" clip-path="url(#p63bce831bd)" style="fill: #5e0308"/>
   </g>
   <g id="patch_5">
    <path d="M 121.649126 45.352355 
L 121.204264 45.942706 
L 127.845717 50.9474 
L 128.290579 50.357048 
z
" clip-path="url(#p63bce831bd)" style="fill: #620607"/>
   </g>
   <g id="patch_6">
    <path d="M 121.204264 45.942706 
L 120.759403 46.533057 
L 127.400856 51.537751 
L 127.845717 50.9474 
z
" clip-path="url(#p63bce831bd)" style="fill: #630707"/>
   </g>
   <g id="patch_7">
    <path d="M 120.759403 46.533057 
L 120.314541 47.123409 
L 126.955994 52.128102 
L 127.400856 51.537751 
z
" clip-path="url(#p63bce831bd)" style="fill: #670a07"/>
   </g>
   <g id="patch_8">
    <path d="M 120.314541 47.123409 
L 119.869679 47.71376 
L 126.511132 52.718454 
L 126.955994 52.128102 
z
" clip-path="url(#p63bce831bd)" style="fill: #6a0d07"/>
   </g>
   <g id="patch_9">
    <path d="M 119.869679 47.71376 
L 119.424818 48.304111 
L 126.066271 53.308805 
L 126.511132 52.718454 
z
" clip-path="url(#p63bce831bd)" style="fill: #6c0e07"/>
   </g>
   <g id="patch_10">
    <path d="M 119.424818 48.304111 
L 118.979956 48.894463 
L 125.621409 53.899157 
L 126.066271 53.308805 
z
" clip-path="url(#p63bce831bd)" style="fill: #6f1107"/>
   </g>
   <g id="patch_11">
    <path d="M 118.979956 48.894463 
L 118.535094 49.484814 
L 125.176547 54.489508 
L 125.621409 53.899157 
z
" clip-path="url(#p63bce831bd)" style="fill: #731406"/>
   </g>
   <g id="patch_12">
    <path d="M 118.535094 49.484814 
L 118.090233 50.075166 
L 124.731686 55.079859 
L 125.176547 54.489508 
z
" clip-path="url(#p63bce831bd)" style="fill: #761706"/>
   </g>
   <g id="patch_13">
    <path d="M 118.090233 50.075166 
L 117.645371 50.665517 
L 124.286824 55.670211 
L 124.731686 55.079859 
z
" clip-path="url(#p63bce831bd)" style="fill: #781806"/>
   </g>
   <g id="patch_14">
    <path d="M 117.645371 50.665517 
L 117.200509 51.255868 
L 123.841962 56.260562 
L 124.286824 55.670211 
z
" clip-path="url(#p63bce831bd)" style="fill: #7c1b06"/>
   </g>
   <g id="patch_15">
    <path d="M 117.200509 51.255868 
L 116.755648 51.84622 
L 123.397101 56.850913 
L 123.841962 56.260562 
z
" clip-path="url(#p63bce831bd)" style="fill: #7f1e06"/>
   </g>
   <g id="patch_16">
    <path d="M 116.755648 51.84622 
L 116.310786 52.436571 
L 122.952239 57.441265 
L 123.397101 56.850913 
z
" clip-path="url(#p63bce831bd)" style="fill: #811f06"/>
   </g>
   <g id="patch_17">
    <path d="M 116.310786 52.436571 
L 115.865924 53.026922 
L 122.507377 58.031616 
L 122.952239 57.441265 
z
" clip-path="url(#p63bce831bd)" style="fill: #852206"/>
   </g>
   <g id="patch_18">
    <path d="M 115.865924 53.026922 
L 115.421063 53.617274 
L 122.062516 58.621967 
L 122.507377 58.031616 
z
" clip-path="url(#p63bce831bd)" style="fill: #892606"/>
   </g>
   <g id="patch_19">
    <path d="M 115.421063 53.617274 
L 114.976201 54.207625 
L 121.617654 59.212319 
L 122.062516 58.621967 
z
" clip-path="url(#p63bce831bd)" style="fill: #8d2906"/>
   </g>
   <g id="patch_20">
    <path d="M 114.976201 54.207625 
L 114.531339 54.797976 
L 121.172792 59.80267 
L 121.617654 59.212319 
z
" clip-path="url(#p63bce831bd)" style="fill: #8f2b06"/>
   </g>
   <g id="patch_21">
    <path d="M 114.531339 54.797976 
L 114.086478 55.388328 
L 120.727931 60.393022 
L 121.172792 59.80267 
z
" clip-path="url(#p63bce831bd)" style="fill: #942f06"/>
   </g>
   <g id="patch_22">
    <path d="M 114.086478 55.388328 
L 113.641616 55.978679 
L 120.283069 60.983373 
L 120.727931 60.393022 
z
" clip-path="url(#p63bce831bd)" style="fill: #983307"/>
   </g>
   <g id="patch_23">
    <path d="M 113.641616 55.978679 
L 113.196754 56.569031 
L 119.838207 61.573724 
L 120.283069 60.983373 
z
" clip-path="url(#p63bce831bd)" style="fill: #9a3508"/>
   </g>
   <g id="patch_24">
    <path d="M 113.196754 56.569031 
L 112.751893 57.159382 
L 119.393346 62.164076 
L 119.838207 61.573724 
z
" clip-path="url(#p63bce831bd)" style="fill: #9f390a"/>
   </g>
   <g id="patch_25">
    <path d="M 112.751893 57.159382 
L 112.307031 57.749733 
L 118.948484 62.754427 
L 119.393346 62.164076 
z
" clip-path="url(#p63bce831bd)" style="fill: #a33e0d"/>
   </g>
   <g id="patch_26">
    <path d="M 112.307031 57.749733 
L 111.862169 58.340085 
L 118.503622 63.344778 
L 118.948484 62.754427 
z
" clip-path="url(#p63bce831bd)" style="fill: #a5400f"/>
   </g>
   <g id="patch_27">
    <path d="M 111.862169 58.340085 
L 111.417308 58.930436 
L 118.058761 63.93513 
L 118.503622 63.344778 
z
" clip-path="url(#p63bce831bd)" style="fill: #a94512"/>
   </g>
   <g id="patch_28">
    <path d="M 111.417308 58.930436 
L 110.972446 59.520787 
L 117.613899 64.525481 
L 118.058761 63.93513 
z
" clip-path="url(#p63bce831bd)" style="fill: #ad4a16"/>
   </g>
   <g id="patch_29">
    <path d="M 110.972446 59.520787 
L 110.527584 60.111139 
L 117.169037 65.115833 
L 117.613899 64.525481 
z
" clip-path="url(#p63bce831bd)" style="fill: #b04f1b"/>
   </g>
   <g id="patch_30">
    <path d="M 110.527584 60.111139 
L 110.082723 60.70149 
L 116.724176 65.706184 
L 117.169037 65.115833 
z
" clip-path="url(#p63bce831bd)" style="fill: #b2511d"/>
   </g>
   <g id="patch_31">
    <path d="M 110.082723 60.70149 
L 109.637861 61.291842 
L 116.279314 66.296535 
L 116.724176 65.706184 
z
" clip-path="url(#p63bce831bd)" style="fill: #b55521"/>
   </g>
   <g id="patch_32">
    <path d="M 109.637861 61.291842 
L 109.192999 61.882193 
L 115.834452 66.886887 
L 116.279314 66.296535 
z
" clip-path="url(#p63bce831bd)" style="fill: #b75a26"/>
   </g>
   <g id="patch_33">
    <path d="M 109.192999 61.882193 
L 108.748138 62.472544 
L 115.389591 67.477238 
L 115.834452 66.886887 
z
" clip-path="url(#p63bce831bd)" style="fill: #b85c28"/>
   </g>
   <g id="patch_34">
    <path d="M 108.748138 62.472544 
L 108.303276 63.062896 
L 114.944729 68.067589 
L 115.389591 67.477238 
z
" clip-path="url(#p63bce831bd)" style="fill: #bb602d"/>
   </g>
   <g id="patch_35">
    <path d="M 108.303276 63.062896 
L 107.858414 63.653247 
L 114.499867 68.657941 
L 114.944729 68.067589 
z
" clip-path="url(#p63bce831bd)" style="fill: #bd6431"/>
   </g>
   <g id="patch_36">
    <path d="M 107.858414 63.653247 
L 107.413553 64.243598 
L 114.055006 69.248292 
L 114.499867 68.657941 
z
" clip-path="url(#p63bce831bd)" style="fill: #be6736"/>
   </g>
   <g id="patch_37">
    <path d="M 107.413553 64.243598 
L 106.968691 64.83395 
L 113.610144 69.838643 
L 114.055006 69.248292 
z
" clip-path="url(#p63bce831bd)" style="fill: #bf6938"/>
   </g>
   <g id="patch_38">
    <path d="M 106.968691 64.83395 
L 106.523829 65.424301 
L 113.165282 70.428995 
L 113.610144 69.838643 
z
" clip-path="url(#p63bce831bd)" style="fill: #c16d3c"/>
   </g>
   <g id="patch_39">
    <path d="M 106.523829 65.424301 
L 106.078968 66.014652 
L 112.720421 71.019346 
L 113.165282 70.428995 
z
" clip-path="url(#p63bce831bd)" style="fill: #c27041"/>
   </g>
   <g id="patch_40">
    <path d="M 106.078968 66.014652 
L 105.634106 66.605004 
L 112.275559 71.609698 
L 112.720421 71.019346 
z
" clip-path="url(#p63bce831bd)" style="fill: #c37243"/>
   </g>
   <g id="patch_41">
    <path d="M 105.634106 66.605004 
L 105.189244 67.195355 
L 111.830697 72.200049 
L 112.275559 71.609698 
z
" clip-path="url(#p63bce831bd)" style="fill: #c57548"/>
   </g>
   <g id="patch_42">
    <path d="M 105.189244 67.195355 
L 104.744383 67.785707 
L 111.385836 72.7904 
L 111.830697 72.200049 
z
" clip-path="url(#p63bce831bd)" style="fill: #c6794c"/>
   </g>
   <g id="patch_43">
    <path d="M 104.744383 67.785707 
L 104.299521 68.376058 
L 110.940974 73.380752 
L 111.385836 72.7904 
z
" clip-path="url(#p63bce831bd)" style="fill: #c77b4f"/>
   </g>
   <g id="patch_44">
    <path d="M 104.299521 68.376058 
L 103.854659 68.966409 
L 110.496112 73.971103 
L 110.940974 73.380752 
z
" clip-path="url(#p63bce831bd)" style="fill: #c97e53"/>
   </g>
   <g id="patch_45">
    <path d="M 103.854659 68.966409 
L 103.409798 69.556761 
L 110.051251 74.561454 
L 110.496112 73.971103 
z
" clip-path="url(#p63bce831bd)" style="fill: #ca8258"/>
   </g>
   <g id="patch_46">
    <path d="M 103.409798 69.556761 
L 102.964936 70.147112 
L 109.606389 75.151806 
L 110.051251 74.561454 
z
" clip-path="url(#p63bce831bd)" style="fill: #cc855d"/>
   </g>
   <g id="patch_47">
    <path d="M 102.964936 70.147112 
L 102.520074 70.737463 
L 109.161527 75.742157 
L 109.606389 75.151806 
z
" clip-path="url(#p63bce831bd)" style="fill: #cc875f"/>
   </g>
   <g id="patch_48">
    <path d="M 102.520074 70.737463 
L 102.075213 71.327815 
L 108.716666 76.332509 
L 109.161527 75.742157 
z
" clip-path="url(#p63bce831bd)" style="fill: #ce8b64"/>
   </g>
   <g id="patch_49">
    <path d="M 102.075213 71.327815 
L 101.630351 71.918166 
L 108.271804 76.92286 
L 108.716666 76.332509 
z
" clip-path="url(#p63bce831bd)" style="fill: #cf8e68"/>
   </g>
   <g id="patch_50">
    <path d="M 101.630351 71.918166 
L 101.185489 72.508518 
L 107.826942 77.513211 
L 108.271804 76.92286 
z
" clip-path="url(#p63bce831bd)" style="fill: #d0906b"/>
   </g>
   <g id="patch_51">
    <path d="M 101.185489 72.508518 
L 100.740628 73.098869 
L 107.382081 78.103563 
L 107.826942 77.513211 
z
" clip-path="url(#p63bce831bd)" style="fill: #d29470"/>
   </g>
   <g id="patch_52">
    <path d="M 100.740628 73.098869 
L 100.295766 73.68922 
L 106.937219 78.693914 
L 107.382081 78.103563 
z
" clip-path="url(#p63bce831bd)" style="fill: #d39774"/>
   </g>
   <g id="patch_53">
    <path d="M 100.295766 73.68922 
L 99.850904 74.279572 
L 106.492357 79.284265 
L 106.937219 78.693914 
z
" clip-path="url(#p63bce831bd)" style="fill: #d59b79"/>
   </g>
   <g id="patch_54">
    <path d="M 99.850904 74.279572 
L 99.406043 74.869923 
L 106.047496 79.874617 
L 106.492357 79.284265 
z
" clip-path="url(#p63bce831bd)" style="fill: #d69d7c"/>
   </g>
   <g id="patch_55">
    <path d="M 99.406043 74.869923 
L 98.961181 75.460274 
L 105.602634 80.464968 
L 106.047496 79.874617 
z
" clip-path="url(#p63bce831bd)" style="fill: #d7a081"/>
   </g>
   <g id="patch_56">
    <path d="M 98.961181 75.460274 
L 98.516319 76.050626 
L 105.157772 81.055319 
L 105.602634 80.464968 
z
" clip-path="url(#p63bce831bd)" style="fill: #d9a486"/>
   </g>
   <g id="patch_57">
    <path d="M 98.516319 76.050626 
L 98.071458 76.640977 
L 104.712911 81.645671 
L 105.157772 81.055319 
z
" clip-path="url(#p63bce831bd)" style="fill: #daa688"/>
   </g>
   <g id="patch_58">
    <path d="M 98.071458 76.640977 
L 97.626596 77.231328 
L 104.268049 82.236022 
L 104.712911 81.645671 
z
" clip-path="url(#p63bce831bd)" style="fill: #dbaa8d"/>
   </g>
   <g id="patch_59">
    <path d="M 97.626596 77.231328 
L 97.181734 77.82168 
L 103.823187 82.826374 
L 104.268049 82.236022 
z
" clip-path="url(#p63bce831bd)" style="fill: #ddae93"/>
   </g>
   <g id="patch_60">
    <path d="M 97.181734 77.82168 
L 96.736873 78.412031 
L 103.378326 83.416725 
L 103.823187 82.826374 
z
" clip-path="url(#p63bce831bd)" style="fill: #deb095"/>
   </g>
   <g id="patch_61">
    <path d="M 96.736873 78.412031 
L 96.292011 79.002383 
L 102.933464 84.007076 
L 103.378326 83.416725 
z
" clip-path="url(#p63bce831bd)" style="fill: #dfb49a"/>
   </g>
   <g id="patch_62">
    <path d="M 96.292011 79.002383 
L 95.847149 79.592734 
L 102.488602 84.597428 
L 102.933464 84.007076 
z
" clip-path="url(#p63bce831bd)" style="fill: #e1b8a0"/>
   </g>
   <g id="patch_63">
    <path d="M 95.847149 79.592734 
L 95.402288 80.183085 
L 102.043741 85.187779 
L 102.488602 84.597428 
z
" clip-path="url(#p63bce831bd)" style="fill: #e3bca5"/>
   </g>
   <g id="patch_64">
    <path d="M 95.402288 80.183085 
L 94.957426 80.773437 
L 101.598879 85.77813 
L 102.043741 85.187779 
z
" clip-path="url(#p63bce831bd)" style="fill: #e4bea8"/>
   </g>
   <g id="patch_65">
    <path d="M 94.957426 80.773437 
L 94.512564 81.363788 
L 101.154017 86.368482 
L 101.598879 85.77813 
z
" clip-path="url(#p63bce831bd)" style="fill: #e5c1ad"/>
   </g>
   <g id="patch_66">
    <path d="M 94.512564 81.363788 
L 94.067703 81.954139 
L 100.709156 86.958833 
L 101.154017 86.368482 
z
" clip-path="url(#p63bce831bd)" style="fill: #e7c6b2"/>
   </g>
   <g id="patch_67">
    <path d="M 94.067703 81.954139 
L 93.622841 82.544491 
L 100.264294 87.549185 
L 100.709156 86.958833 
z
" clip-path="url(#p63bce831bd)" style="fill: #e8c8b5"/>
   </g>
   <g id="patch_68">
    <path d="M 93.622841 82.544491 
L 93.177979 83.134842 
L 99.819432 88.139536 
L 100.264294 87.549185 
z
" clip-path="url(#p63bce831bd)" style="fill: #e9ccba"/>
   </g>
   <g id="patch_69">
    <path d="M 93.177979 83.134842 
L 92.733118 83.725194 
L 99.374571 88.729887 
L 99.819432 88.139536 
z
" clip-path="url(#p63bce831bd)" style="fill: #ebd0c0"/>
   </g>
   <g id="patch_70">
    <path d="M 92.733118 83.725194 
L 92.288256 84.315545 
L 98.929709 89.320239 
L 99.374571 88.729887 
z
" clip-path="url(#p63bce831bd)" style="fill: #ecd3c5"/>
   </g>
   <g id="patch_71">
    <path d="M 92.288256 84.315545 
L 91.843394 84.905896 
L 98.484847 89.91059 
L 98.929709 89.320239 
z
" clip-path="url(#p63bce831bd)" style="fill: #edd5c8"/>
   </g>
   <g id="patch_72">
    <path d="M 91.843394 84.905896 
L 91.398533 85.496248 
L 98.039986 90.500941 
L 98.484847 89.91059 
z
" clip-path="url(#p63bce831bd)" style="fill: #eed9cd"/>
   </g>
   <g id="patch_73">
    <path d="M 91.398533 85.496248 
L 90.953671 86.086599 
L 97.595124 91.091293 
L 98.039986 90.500941 
z
" clip-path="url(#p63bce831bd)" style="fill: #eeddd3"/>
   </g>
   <g id="patch_74">
    <path d="M 90.953671 86.086599 
L 90.508809 86.67695 
L 97.150262 91.681644 
L 97.595124 91.091293 
z
" clip-path="url(#p63bce831bd)" style="fill: #eeded5"/>
   </g>
   <g id="patch_75">
    <path d="M 90.508809 86.67695 
L 90.063948 87.267302 
L 96.705401 92.271995 
L 97.150262 91.681644 
z
" clip-path="url(#p63bce831bd)" style="fill: #eee1da"/>
   </g>
   <g id="patch_76">
    <path d="M 90.063948 87.267302 
L 89.619086 87.857653 
L 96.260539 92.862347 
L 96.705401 92.271995 
z
" clip-path="url(#p63bce831bd)" style="fill: #ede4de"/>
   </g>
   <g id="patch_77">
    <path d="M 89.619086 87.857653 
L 89.174224 88.448005 
L 95.815677 93.452698 
L 96.260539 92.862347 
z
" clip-path="url(#p63bce831bd)" style="fill: #ece5e0"/>
   </g>
   <g id="patch_78">
    <path d="M 89.174224 88.448005 
L 88.729363 89.038356 
L 95.370816 94.04305 
L 95.815677 93.452698 
z
" clip-path="url(#p63bce831bd)" style="fill: #eae6e4"/>
   </g>
   <g id="patch_79">
    <path d="M 88.729363 89.038356 
L 88.284501 89.628707 
L 94.925954 94.633401 
L 95.370816 94.04305 
z
" clip-path="url(#p63bce831bd)" style="fill: #e7e7e7"/>
   </g>
   <g id="patch_80">
    <path d="M 88.284501 89.628707 
L 87.839639 90.219059 
L 94.481092 95.223752 
L 94.925954 94.633401 
z
" clip-path="url(#p63bce831bd)" style="fill: #e2e7e8"/>
   </g>
   <g id="patch_81">
    <path d="M 87.839639 90.219059 
L 87.394778 90.80941 
L 94.036231 95.814104 
L 94.481092 95.223752 
z
" clip-path="url(#p63bce831bd)" style="fill: #e0e6e9"/>
   </g>
   <g id="patch_82">
    <path d="M 87.394778 90.80941 
L 86.949916 91.399761 
L 93.591369 96.404455 
L 94.036231 95.814104 
z
" clip-path="url(#p63bce831bd)" style="fill: #dbe5e9"/>
   </g>
   <g id="patch_83">
    <path d="M 86.949916 91.399761 
L 86.505054 91.990113 
L 93.146507 96.994806 
L 93.591369 96.404455 
z
" clip-path="url(#p63bce831bd)" style="fill: #d5e3e9"/>
   </g>
   <g id="patch_84">
    <path d="M 86.505054 91.990113 
L 86.060193 92.580464 
L 92.701646 97.585158 
L 93.146507 96.994806 
z
" clip-path="url(#p63bce831bd)" style="fill: #d2e1e9"/>
   </g>
   <g id="patch_85">
    <path d="M 86.060193 92.580464 
L 85.615331 93.170815 
L 92.256784 98.175509 
L 92.701646 97.585158 
z
" clip-path="url(#p63bce831bd)" style="fill: #ccdfe8"/>
   </g>
   <g id="patch_86">
    <path d="M 85.615331 93.170815 
L 85.170469 93.761167 
L 91.811922 98.765861 
L 92.256784 98.175509 
z
" clip-path="url(#p63bce831bd)" style="fill: #c6dbe6"/>
   </g>
   <g id="patch_87">
    <path d="M 85.170469 93.761167 
L 84.725608 94.351518 
L 91.367061 99.356212 
L 91.811922 98.765861 
z
" clip-path="url(#p63bce831bd)" style="fill: #c0d8e4"/>
   </g>
   <g id="patch_88">
    <path d="M 84.725608 94.351518 
L 84.280746 94.94187 
L 90.922199 99.946563 
L 91.367061 99.356212 
z
" clip-path="url(#p63bce831bd)" style="fill: #bdd6e3"/>
   </g>
   <g id="patch_89">
    <path d="M 84.280746 94.94187 
L 83.835884 95.532221 
L 90.477337 100.536915 
L 90.922199 99.946563 
z
" clip-path="url(#p63bce831bd)" style="fill: #b6d3e1"/>
   </g>
   <g id="patch_90">
    <path d="M 83.835884 95.532221 
L 83.391023 96.122572 
L 90.032476 101.127266 
L 90.477337 100.536915 
z
" clip-path="url(#p63bce831bd)" style="fill: #b0cfde"/>
   </g>
   <g id="patch_91">
    <path d="M 83.391023 96.122572 
L 82.946161 96.712924 
L 89.587614 101.717617 
L 90.032476 101.127266 
z
" clip-path="url(#p63bce831bd)" style="fill: #adcddd"/>
   </g>
   <g id="patch_92">
    <path d="M 82.946161 96.712924 
L 82.501299 97.303275 
L 89.142752 102.307969 
L 89.587614 101.717617 
z
" clip-path="url(#p63bce831bd)" style="fill: #a7c9da"/>
   </g>
   <g id="patch_93">
    <path d="M 82.501299 97.303275 
L 82.056438 97.893626 
L 88.697891 102.89832 
L 89.142752 102.307969 
z
" clip-path="url(#p63bce831bd)" style="fill: #a0c5d8"/>
   </g>
   <g id="patch_94">
    <path d="M 82.056438 97.893626 
L 81.611576 98.483978 
L 88.253029 103.488672 
L 88.697891 102.89832 
z
" clip-path="url(#p63bce831bd)" style="fill: #9ac2d5"/>
   </g>
   <g id="patch_95">
    <path d="M 81.611576 98.483978 
L 81.166714 99.074329 
L 87.808167 104.079023 
L 88.253029 103.488672 
z
" clip-path="url(#p63bce831bd)" style="fill: #97c0d4"/>
   </g>
   <g id="patch_96">
    <path d="M 81.166714 99.074329 
L 80.721853 99.664681 
L 87.363306 104.669374 
L 87.808167 104.079023 
z
" clip-path="url(#p63bce831bd)" style="fill: #90bcd1"/>
   </g>
   <g id="patch_97">
    <path d="M 80.721853 99.664681 
L 80.276991 100.255032 
L 86.918444 105.259726 
L 87.363306 104.669374 
z
" clip-path="url(#p63bce831bd)" style="fill: #8ab8ce"/>
   </g>
   <g id="patch_98">
    <path d="M 80.276991 100.255032 
L 79.832129 100.845383 
L 86.473582 105.850077 
L 86.918444 105.259726 
z
" clip-path="url(#p63bce831bd)" style="fill: #87b6cd"/>
   </g>
   <g id="patch_99">
    <path d="M 79.832129 100.845383 
L 79.387268 101.435735 
L 86.028721 106.440428 
L 86.473582 105.850077 
z
" clip-path="url(#p63bce831bd)" style="fill: #80b2ca"/>
   </g>
   <g id="patch_100">
    <path d="M 79.387268 101.435735 
L 78.942406 102.026086 
L 85.583859 107.03078 
L 86.028721 106.440428 
z
" clip-path="url(#p63bce831bd)" style="fill: #7aaec8"/>
   </g>
   <g id="patch_101">
    <path d="M 78.942406 102.026086 
L 78.497544 102.616437 
L 85.138997 107.621131 
L 85.583859 107.03078 
z
" clip-path="url(#p63bce831bd)" style="fill: #77acc6"/>
   </g>
   <g id="patch_102">
    <path d="M 78.497544 102.616437 
L 78.052683 103.206789 
L 84.694136 108.211482 
L 85.138997 107.621131 
z
" clip-path="url(#p63bce831bd)" style="fill: #71a8c4"/>
   </g>
   <g id="patch_103">
    <path d="M 78.052683 103.206789 
L 77.607821 103.79714 
L 84.249274 108.801834 
L 84.694136 108.211482 
z
" clip-path="url(#p63bce831bd)" style="fill: #6aa4c1"/>
   </g>
   <g id="patch_104">
    <path d="M 77.607821 103.79714 
L 77.162959 104.387491 
L 83.804412 109.392185 
L 84.249274 108.801834 
z
" clip-path="url(#p63bce831bd)" style="fill: #64a0be"/>
   </g>
   <g id="patch_105">
    <path d="M 77.162959 104.387491 
L 76.718098 104.977843 
L 83.359551 109.982537 
L 83.804412 109.392185 
z
" clip-path="url(#p63bce831bd)" style="fill: #619ebd"/>
   </g>
   <g id="patch_106">
    <path d="M 76.718098 104.977843 
L 76.273236 105.568194 
L 82.914689 110.572888 
L 83.359551 109.982537 
z
" clip-path="url(#p63bce831bd)" style="fill: #5a9aba"/>
   </g>
   <g id="patch_107">
    <path d="M 76.273236 105.568194 
L 75.828374 106.158546 
L 82.469827 111.163239 
L 82.914689 110.572888 
z
" clip-path="url(#p63bce831bd)" style="fill: #5496b7"/>
   </g>
   <g id="patch_108">
    <path d="M 75.828374 106.158546 
L 75.383513 106.748897 
L 82.024966 111.753591 
L 82.469827 111.163239 
z
" clip-path="url(#p63bce831bd)" style="fill: #5194b6"/>
   </g>
   <g id="patch_109">
    <path d="M 75.383513 106.748897 
L 74.938651 107.339248 
L 81.580104 112.343942 
L 82.024966 111.753591 
z
" clip-path="url(#p63bce831bd)" style="fill: #4b90b3"/>
   </g>
   <g id="patch_110">
    <path d="M 74.938651 107.339248 
L 74.493789 107.9296 
L 81.135242 112.934293 
L 81.580104 112.343942 
z
" clip-path="url(#p63bce831bd)" style="fill: #458bb0"/>
   </g>
   <g id="patch_111">
    <path d="M 74.493789 107.9296 
L 74.048928 108.519951 
L 80.690381 113.524645 
L 81.135242 112.934293 
z
" clip-path="url(#p63bce831bd)" style="fill: #3f87ad"/>
   </g>
   <g id="patch_112">
    <path d="M 74.048928 108.519951 
L 73.604066 109.110302 
L 80.245519 114.114996 
L 80.690381 113.524645 
z
" clip-path="url(#p63bce831bd)" style="fill: #3c85ac"/>
   </g>
   <g id="patch_113">
    <path d="M 73.604066 109.110302 
L 73.159204 109.700654 
L 79.800657 114.705348 
L 80.245519 114.114996 
z
" clip-path="url(#p63bce831bd)" style="fill: #3681a9"/>
   </g>
   <g id="patch_114">
    <path d="M 73.159204 109.700654 
L 72.714343 110.291005 
L 79.355796 115.295699 
L 79.800657 114.705348 
z
" clip-path="url(#p63bce831bd)" style="fill: #307da6"/>
   </g>
   <g id="patch_115">
    <path d="M 72.714343 110.291005 
L 72.269481 110.881357 
L 78.910934 115.88605 
L 79.355796 115.295699 
z
" clip-path="url(#p63bce831bd)" style="fill: #2d7ba5"/>
   </g>
   <g id="patch_116">
    <path d="M 72.269481 110.881357 
L 71.824619 111.471708 
L 78.466072 116.476402 
L 78.910934 115.88605 
z
" clip-path="url(#p63bce831bd)" style="fill: #2877a2"/>
   </g>
   <g id="patch_117">
    <path d="M 71.824619 111.471708 
L 71.379758 112.062059 
L 78.021211 117.066753 
L 78.466072 116.476402 
z
" clip-path="url(#p63bce831bd)" style="fill: #2373a0"/>
   </g>
   <g id="patch_118">
    <path d="M 71.379758 112.062059 
L 70.934896 112.652411 
L 77.576349 117.657104 
L 78.021211 117.066753 
z
" clip-path="url(#p63bce831bd)" style="fill: #20719e"/>
   </g>
   <g id="patch_119">
    <path d="M 70.934896 112.652411 
L 70.490034 113.242762 
L 77.131487 118.247456 
L 77.576349 117.657104 
z
" clip-path="url(#p63bce831bd)" style="fill: #1c6d9c"/>
   </g>
   <g id="patch_120">
    <path d="M 70.490034 113.242762 
L 70.045173 113.833113 
L 76.686626 118.837807 
L 77.131487 118.247456 
z
" clip-path="url(#p63bce831bd)" style="fill: #176999"/>
   </g>
   <g id="patch_121">
    <path d="M 70.045173 113.833113 
L 69.600311 114.423465 
L 76.241764 119.428158 
L 76.686626 118.837807 
z
" clip-path="url(#p63bce831bd)" style="fill: #136697"/>
   </g>
   <g id="patch_122">
    <path d="M 69.600311 114.423465 
L 69.155449 115.013816 
L 75.796902 120.01851 
L 76.241764 119.428158 
z
" clip-path="url(#p63bce831bd)" style="fill: #116496"/>
   </g>
   <g id="patch_123">
    <path d="M 69.155449 115.013816 
L 68.710588 115.604167 
L 75.352041 120.608861 
L 75.796902 120.01851 
z
" clip-path="url(#p63bce831bd)" style="fill: #0e6093"/>
   </g>
   <g id="patch_124">
    <path d="M 68.710588 115.604167 
L 68.265726 116.194519 
L 74.907179 121.199213 
L 75.352041 120.608861 
z
" clip-path="url(#p63bce831bd)" style="fill: #0b5d91"/>
   </g>
   <g id="patch_125">
    <path d="M 68.265726 116.194519 
L 67.820864 116.78487 
L 74.462317 121.789564 
L 74.907179 121.199213 
z
" clip-path="url(#p63bce831bd)" style="fill: #095b90"/>
   </g>
   <g id="patch_126">
    <path d="M 67.820864 116.78487 
L 67.376003 117.375222 
L 74.017456 122.379915 
L 74.462317 121.789564 
z
" clip-path="url(#p63bce831bd)" style="fill: #07578d"/>
   </g>
   <g id="patch_127">
    <path d="M 67.376003 117.375222 
L 66.931141 117.965573 
L 73.572594 122.970267 
L 74.017456 122.379915 
z
" clip-path="url(#p63bce831bd)" style="fill: #06548b"/>
   </g>
   <g id="patch_128">
    <path d="M 66.931141 117.965573 
L 66.486279 118.555924 
L 73.127732 123.560618 
L 73.572594 122.970267 
z
" clip-path="url(#p63bce831bd)" style="fill: #055189"/>
   </g>
   <g id="patch_129">
    <path d="M 66.486279 118.555924 
L 66.041418 119.146276 
L 72.682871 124.150969 
L 73.127732 123.560618 
z
" clip-path="url(#p63bce831bd)" style="fill: #044f88"/>
   </g>
   <g id="patch_130">
    <path d="M 66.041418 119.146276 
L 65.596556 119.736627 
L 72.238009 124.741321 
L 72.682871 124.150969 
z
" clip-path="url(#p63bce831bd)" style="fill: #044c86"/>
   </g>
   <g id="patch_131">
    <path d="M 65.596556 119.736627 
L 65.151694 120.326978 
L 71.793147 125.331672 
L 72.238009 124.741321 
z
" clip-path="url(#p63bce831bd)" style="fill: #034984"/>
   </g>
   <g id="patch_132">
    <path d="M 65.151694 120.326978 
L 64.706833 120.91733 
L 71.348286 125.922024 
L 71.793147 125.331672 
z
" clip-path="url(#p63bce831bd)" style="fill: #034783"/>
   </g>
   <g id="patch_133">
    <path d="M 64.706833 120.91733 
L 64.261971 121.507681 
L 70.903424 126.512375 
L 71.348286 125.922024 
z
" clip-path="url(#p63bce831bd)" style="fill: #034481"/>
   </g>
   <g id="patch_134">
    <path d="M 64.261971 121.507681 
L 63.817109 122.098033 
L 70.458562 127.102726 
L 70.903424 126.512375 
z
" clip-path="url(#p63bce831bd)" style="fill: #03417f"/>
   </g>
   <g id="patch_135">
    <path d="M 63.817109 122.098033 
L 63.372248 122.688384 
L 70.013701 127.693078 
L 70.458562 127.102726 
z
" clip-path="url(#p63bce831bd)" style="fill: #033f7e"/>
   </g>
   <g id="patch_136">
    <path d="M 63.372248 122.688384 
L 62.927386 123.278735 
L 69.568839 128.283429 
L 70.013701 127.693078 
z
" clip-path="url(#p63bce831bd)" style="fill: #033c7c"/>
   </g>
   <g id="patch_137">
    <path d="M 62.927386 123.278735 
L 62.482524 123.869087 
L 69.123977 128.87378 
L 69.568839 128.283429 
z
" clip-path="url(#p63bce831bd)" style="fill: #02397a"/>
   </g>
   <g id="patch_138">
    <path d="M 62.482524 123.869087 
L 62.037663 124.459438 
L 68.679116 129.464132 
L 69.123977 128.87378 
z
" clip-path="url(#p63bce831bd)" style="fill: #023678"/>
   </g>
   <g id="patch_139">
    <path d="M 62.037663 124.459438 
L 61.592801 125.049789 
L 68.234254 130.054483 
L 68.679116 129.464132 
z
" clip-path="url(#p63bce831bd)" style="fill: #023477"/>
   </g>
   <g id="patch_140">
    <path d="M 61.592801 125.049789 
L 61.147939 125.640141 
L 67.789392 130.644834 
L 68.234254 130.054483 
z
" clip-path="url(#p63bce831bd)" style="fill: #023175"/>
   </g>
   <g id="patch_141">
    <path d="M 61.147939 125.640141 
L 60.703078 126.230492 
L 67.344531 131.235186 
L 67.789392 130.644834 
z
" clip-path="url(#p63bce831bd)" style="fill: #022e73"/>
   </g>
   <g id="patch_142">
    <path d="M 60.703078 126.230492 
L 60.258216 126.820843 
L 66.899669 131.825537 
L 67.344531 131.235186 
z
" clip-path="url(#p63bce831bd)" style="fill: #022d72"/>
   </g>
   <g id="patch_143">
    <path d="M 60.258216 126.820843 
L 59.813354 127.411195 
L 66.454807 132.415889 
L 66.899669 131.825537 
z
" clip-path="url(#p63bce831bd)" style="fill: #022a70"/>
   </g>
   <g id="patch_144">
    <path d="M 59.813354 127.411195 
L 59.368493 128.001546 
L 66.009946 133.00624 
L 66.454807 132.415889 
z
" clip-path="url(#p63bce831bd)" style="fill: #02276e"/>
   </g>
   <g id="patch_145">
    <path d="M 59.368493 128.001546 
L 58.923631 128.591898 
L 65.565084 133.596591 
L 66.009946 133.00624 
z
" clip-path="url(#p63bce831bd)" style="fill: #02236c"/>
   </g>
   <g id="patch_146">
    <path d="M 58.923631 128.591898 
L 58.478769 129.182249 
L 65.120222 134.186943 
L 65.565084 133.596591 
z
" clip-path="url(#p63bce831bd)" style="fill: #02226b"/>
   </g>
   <g id="patch_147">
    <path d="M 58.478769 129.182249 
L 58.033908 129.7726 
L 64.675361 134.777294 
L 65.120222 134.186943 
z
" clip-path="url(#p63bce831bd)" style="fill: #021f69"/>
   </g>
   <g id="patch_148">
    <path d="M 58.033908 129.7726 
L 57.589046 130.362952 
L 64.230499 135.367645 
L 64.675361 134.777294 
z
" clip-path="url(#p63bce831bd)" style="fill: #021c67"/>
   </g>
   <g id="patch_149">
    <path d="M 57.589046 130.362952 
L 57.144184 130.953303 
L 63.785637 135.957997 
L 64.230499 135.367645 
z
" clip-path="url(#p63bce831bd)" style="fill: #011a66"/>
   </g>
   <g id="patch_150">
    <path d="M 57.144184 130.953303 
L 56.699323 131.543654 
L 63.340776 136.548348 
L 63.785637 135.957997 
z
" clip-path="url(#p63bce831bd)" style="fill: #011764"/>
   </g>
   <g id="patch_151">
    <path d="M 56.699323 131.543654 
L 56.254461 132.134006 
L 62.895914 137.1387 
L 63.340776 136.548348 
z
" clip-path="url(#p63bce831bd)" style="fill: #011462"/>
   </g>
   <g id="line2d_3">
    <path d="M 136.313825 32.800742 
" clip-path="url(#p63bce831bd)" style="fill: none; stroke: #000000; stroke-width: 1.5; stroke-linecap: square"/>
    <defs>
     <path id="m5a9933664c" d="M -9.615245 3.074211 
C -9.879655 2.809801 -9.879655 2.381093 -9.615245 2.116773 
L -5.259378 -2.239094 
L -6.979536 -3.959251 
L -9.117929 -1.820858 
C -9.250089 -1.688698 -9.423414 -1.622527 -9.596648 -1.622527 
C -9.769883 -1.622527 -9.943208 -1.688607 -10.075368 -1.820858 
L -18.884505 -10.629995 
C -19.01152 -10.75692 -19.082836 -10.929161 -19.082836 -11.108715 
C -19.082836 -11.288268 -19.01152 -11.46051 -18.884505 -11.587434 
L -13.65037 -16.82184 
C -13.523446 -16.948854 -13.351204 -17.02017 -13.171651 -17.02017 
C -12.992097 -17.02017 -12.819856 -16.948854 -12.692932 -16.82184 
L -3.883794 -8.012702 
C -3.756779 -7.885778 -3.685464 -7.713536 -3.685464 -7.533983 
C -3.685464 -7.354429 -3.756779 -7.182188 -3.883794 -7.055264 
L -6.022188 -4.91687 
L -4.30203 -3.196713 
L -1.016624 -6.482119 
C 0.287283 -7.785936 2.317168 -7.930102 3.782933 -6.916875 
L 5.316947 -8.450798 
C 5.581358 -8.715209 6.010066 -8.715209 6.274386 -8.450798 
L 9.36778 -5.357404 
C 9.494795 -5.23048 9.566111 -5.058238 9.566111 -4.878685 
C 9.566111 -4.699131 9.494795 -4.52689 9.36778 -4.399965 
L 7.834308 -2.866583 
C 8.267349 -2.242524 8.501337 -1.503276 8.501337 -0.727648 
C 8.501337 0.277635 8.109822 1.222616 7.39901 1.933518 
L 4.113605 5.218924 
L 5.833762 6.939081 
L 7.972155 4.800688 
C 8.236566 4.536277 8.665274 4.536277 8.929594 4.800688 
L 17.738822 13.609915 
C 18.003232 13.874326 18.003232 14.303034 17.738822 14.567354 
L 12.504506 19.80167 
C 12.372346 19.93383 12.199021 20 12.025787 20 
C 11.852552 20 11.679228 19.93392 11.547068 19.80167 
L 2.737932 10.992532 
C 2.473521 10.728121 2.473521 10.299414 2.737932 10.035093 
L 4.876323 7.8967 
L 3.156168 6.176543 
L -1.199699 10.532409 
C -1.326623 10.659424 -1.498864 10.730739 -1.678418 10.730739 
C -1.857971 10.730739 -2.030213 10.659424 -2.157137 10.532409 
C -2.888558 9.461396 -9.141671 3.547786 -9.615245 3.074211 
L -9.615245 3.074211 
z
M -12.528725 -6.189092 
L -8.251938 -10.465879 
L -10.239846 -12.453787 
L -14.516633 -8.177 
L -12.528725 -6.189092 
z
M -13.171651 -15.385592 
L -17.448438 -11.108805 
L -15.473981 -9.134348 
L -11.197194 -13.411135 
L -13.171651 -15.385592 
z
M -7.294409 -9.50835 
L -11.571196 -5.231563 
L -9.596739 -3.257106 
L -5.319952 -7.533893 
L -7.294409 -9.50835 
z
M 11.382861 9.168831 
L 7.106074 13.445618 
L 9.093981 15.433526 
L 13.370768 11.156739 
L 11.382861 9.168831 
z
M 12.025787 18.365422 
L 16.302574 14.088635 
L 14.328117 12.114177 
L 10.05133 16.390964 
L 12.025787 18.365422 
z
M 6.148545 12.48818 
L 10.425332 8.211393 
L 8.450875 6.236935 
L 4.174088 10.513722 
L 6.148545 12.48818 
z
M -0.627637 -4.956049 
L -6.372267 0.788582 
L 0.128402 7.289251 
L 5.873031 1.544621 
L -0.627637 -4.956049 
z
M 1.644452 -6.229083 
C 1.203376 -6.229083 0.762482 -6.108297 0.375119 -5.86817 
L 6.785603 0.542316 
C 7.020765 0.164703 7.147148 -0.271588 7.147148 -0.727558 
C 7.147148 -1.371116 6.896549 -1.976128 6.441482 -2.431195 
L 3.348089 -5.52459 
C 2.878397 -5.994282 2.26156 -6.229083 1.644452 -6.229083 
z
M 5.795667 -7.01455 
L 4.784425 -6.003309 
L 5.852358 -4.935376 
L 6.920291 -3.867443 
L 7.931623 -4.878685 
L 5.795667 -7.01455 
z
M -1.678418 9.096161 
L -0.829036 8.24678 
L -7.329706 1.74611 
L -8.179087 2.595492 
L -1.678418 9.096161 
z
" style="stroke: #000000"/>
    </defs>
    <g clip-path="url(#p63bce831bd)">
     <use xlink:href="#m5a9933664c" x="136.313825" y="32.800742" style="stroke: #000000"/>
    </g>
   </g>
   <g id="text_1">
    <!-- West -->
    <g transform="translate(7.2 93.426563) scale(0.12 -0.12)">
     <defs>
      <path id="TeXGyreHeros-Regular-57" d="M 5946 4666 
L 4762 0 
L 4109 0 
L 3034 3834 
L 1990 0 
L 1338 0 
L 141 4666 
L 806 4666 
L 1683 877 
L 2720 4666 
L 3360 4666 
L 4422 877 
L 5280 4666 
L 5946 4666 
z
" transform="scale(0.015625)"/>
      <path id="TeXGyreHeros-Regular-65" d="M 3283 1523 
L 813 1523 
Q 819 966 1091 681 
Q 1363 397 1798 397 
Q 2470 397 2675 1018 
L 3213 1018 
Q 3110 506 2729 205 
Q 2349 -96 1779 -96 
Q 1069 -96 662 368 
Q 256 832 256 1657 
Q 256 2483 672 2966 
Q 1088 3450 1792 3450 
Q 2266 3450 2627 3213 
Q 2989 2976 3149 2566 
Q 3283 2214 3283 1523 
z
M 2714 1997 
Q 2714 2394 2445 2675 
Q 2176 2957 1786 2957 
Q 1382 2957 1120 2681 
Q 858 2406 826 1958 
L 2707 1958 
L 2714 1997 
z
" transform="scale(0.015625)"/>
      <path id="TeXGyreHeros-Regular-73" d="M 2938 941 
Q 2938 461 2563 182 
Q 2189 -96 1555 -96 
Q 896 -96 566 176 
Q 237 448 218 1024 
L 781 1024 
Q 832 659 1024 528 
Q 1216 397 1600 397 
Q 1952 397 2166 531 
Q 2381 666 2381 896 
Q 2381 1075 2262 1171 
Q 2144 1267 1862 1338 
L 1363 1459 
Q 768 1600 534 1814 
Q 301 2029 301 2426 
Q 301 2893 653 3171 
Q 1005 3450 1587 3450 
Q 2170 3450 2483 3181 
Q 2797 2912 2803 2419 
L 2240 2419 
Q 2221 2957 1568 2957 
Q 1242 2957 1050 2819 
Q 858 2682 858 2451 
Q 858 2272 1005 2160 
Q 1152 2048 1478 1971 
L 1990 1850 
Q 2496 1728 2717 1520 
Q 2938 1312 2938 941 
z
" transform="scale(0.015625)"/>
      <path id="TeXGyreHeros-Regular-74" d="M 1626 0 
Q 1376 -45 1190 -45 
Q 877 -45 710 92 
Q 544 230 544 486 
L 544 2918 
L 90 2918 
L 90 3354 
L 544 3354 
L 544 4275 
L 1075 4275 
L 1075 3354 
L 1626 3354 
L 1626 2918 
L 1075 2918 
L 1075 723 
Q 1075 544 1136 483 
Q 1197 422 1370 422 
Q 1530 422 1626 448 
L 1626 0 
z
" transform="scale(0.015625)"/>
     </defs>
     <use xlink:href="#TeXGyreHeros-Regular-57"/>
     <use xlink:href="#TeXGyreHeros-Regular-65" transform="translate(94.399994 0)"/>
     <use xlink:href="#TeXGyreHeros-Regular-73" transform="translate(149.999985 0)"/>
     <use xlink:href="#TeXGyreHeros-Regular-74" transform="translate(199.999969 0)"/>
    </g>
   </g>
   <g id="text_2">
    <!-- East -->
    <g transform="translate(153.006188 93.426563) scale(0.12 -0.12)">
     <defs>
      <path id="TeXGyreHeros-Regular-45" d="M 3923 0 
L 576 0 
L 576 4666 
L 3808 4666 
L 3808 4141 
L 1171 4141 
L 1171 2650 
L 3712 2650 
L 3712 2125 
L 1171 2125 
L 1171 525 
L 3923 525 
L 3923 0 
z
" transform="scale(0.015625)"/>
      <path id="TeXGyreHeros-Regular-61" d="M 3424 13 
Q 3200 -45 3059 -45 
Q 2861 -45 2707 80 
Q 2554 205 2509 397 
Q 2048 -96 1370 -96 
Q 858 -96 563 160 
Q 269 416 269 870 
Q 269 1498 858 1741 
Q 1018 1805 1197 1840 
Q 1376 1875 1933 1946 
Q 2246 1984 2368 2067 
Q 2490 2150 2490 2317 
L 2490 2458 
Q 2490 2701 2294 2829 
Q 2099 2957 1741 2957 
Q 1370 2957 1178 2813 
Q 986 2669 954 2362 
L 416 2362 
Q 461 3450 1760 3450 
Q 2381 3450 2701 3216 
Q 3021 2982 3021 2534 
L 3021 666 
Q 3021 403 3309 403 
Q 3366 403 3424 416 
L 3424 13 
z
M 2490 1158 
L 2490 1658 
Q 2278 1562 1632 1472 
Q 1197 1408 1011 1277 
Q 826 1146 826 883 
Q 826 371 1485 371 
Q 1888 371 2189 592 
Q 2490 813 2490 1158 
z
" transform="scale(0.015625)"/>
     </defs>
     <use xlink:href="#TeXGyreHeros-Regular-45"/>
     <use xlink:href="#TeXGyreHeros-Regular-61" transform="translate(66.699997 0)"/>
     <use xlink:href="#TeXGyreHeros-Regular-73" transform="translate(122.299988 0)"/>
     <use xlink:href="#TeXGyreHeros-Regular-74" transform="translate(172.299973 0)"/>
    </g>
   </g>
   <g id="text_3">
    <!-- Up -->
    <g transform="translate(85.272 26.898563) scale(0.12 -0.12)">
     <defs>
      <path id="TeXGyreHeros-Regular-55" d="M 4128 1421 
Q 4128 717 3638 301 
Q 3149 -115 2330 -115 
Q 1498 -115 1021 297 
Q 544 710 544 1421 
L 544 4666 
L 1139 4666 
L 1139 1421 
Q 1139 928 1462 669 
Q 1786 410 2330 410 
Q 2893 410 3213 678 
Q 3533 947 3533 1421 
L 3533 4666 
L 4128 4666 
L 4128 1421 
z
" transform="scale(0.015625)"/>
      <path id="TeXGyreHeros-Regular-70" d="M 3347 1645 
Q 3347 845 2956 374 
Q 2566 -96 1914 -96 
Q 1293 -96 883 403 
L 883 -1395 
L 352 -1395 
L 352 3354 
L 838 3354 
L 838 2848 
Q 1216 3450 1907 3450 
Q 2579 3450 2963 2970 
Q 3347 2490 3347 1645 
z
M 2790 1658 
Q 2790 2253 2524 2601 
Q 2259 2950 1818 2950 
Q 1395 2950 1139 2595 
Q 883 2240 883 1651 
Q 883 1069 1136 736 
Q 1389 403 1818 403 
Q 2253 403 2521 745 
Q 2790 1088 2790 1658 
z
" transform="scale(0.015625)"/>
     </defs>
     <use xlink:href="#TeXGyreHeros-Regular-55"/>
     <use xlink:href="#TeXGyreHeros-Regular-70" transform="translate(72.199982 0)"/>
    </g>
   </g>
   <g id="text_4">
    <!-- Down -->
    <g transform="translate(77.604188 159.954563) scale(0.12 -0.12)">
     <defs>
      <path id="TeXGyreHeros-Regular-44" d="M 3763 4045 
Q 4269 3424 4269 2336 
Q 4269 1248 3760 624 
Q 3251 0 2368 0 
L 570 0 
L 570 4666 
L 2368 4666 
Q 3258 4666 3763 4045 
z
M 3674 2330 
Q 3674 3219 3315 3680 
Q 2957 4141 2266 4141 
L 1165 4141 
L 1165 525 
L 2266 525 
Q 2957 525 3315 985 
Q 3674 1446 3674 2330 
z
" transform="scale(0.015625)"/>
      <path id="TeXGyreHeros-Regular-6f" d="M 3264 1651 
Q 3264 826 2861 365 
Q 2458 -96 1747 -96 
Q 1030 -96 630 368 
Q 230 832 230 1677 
Q 230 2515 630 2982 
Q 1030 3450 1741 3450 
Q 2470 3450 2867 2982 
Q 3264 2515 3264 1651 
z
M 2707 1658 
Q 2707 2278 2454 2617 
Q 2202 2957 1747 2957 
Q 1299 2957 1043 2617 
Q 787 2278 787 1677 
Q 787 1069 1043 733 
Q 1299 397 1747 397 
Q 2189 397 2448 733 
Q 2707 1069 2707 1658 
z
" transform="scale(0.015625)"/>
      <path id="TeXGyreHeros-Regular-77" d="M 4531 3354 
L 3546 0 
L 2938 0 
L 2259 2630 
L 1613 0 
L 1011 0 
L 38 3354 
L 627 3354 
L 1312 742 
L 1952 3354 
L 2605 3354 
L 3264 742 
L 3930 3354 
L 4531 3354 
z
" transform="scale(0.015625)"/>
      <path id="TeXGyreHeros-Regular-6e" d="M 3117 0 
L 2586 0 
L 2586 2323 
Q 2586 2624 2400 2803 
Q 2214 2982 1894 2982 
Q 1485 2982 1232 2672 
Q 979 2362 979 1850 
L 979 0 
L 448 0 
L 448 3354 
L 941 3354 
L 941 2790 
Q 1165 3142 1424 3296 
Q 1683 3450 2054 3450 
Q 2541 3450 2829 3200 
Q 3117 2950 3117 2534 
L 3117 0 
z
" transform="scale(0.015625)"/>
     </defs>
     <use xlink:href="#TeXGyreHeros-Regular-44"/>
     <use xlink:href="#TeXGyreHeros-Regular-6f" transform="translate(72.199982 0)"/>
     <use xlink:href="#TeXGyreHeros-Regular-77" transform="translate(127.799973 0)"/>
     <use xlink:href="#TeXGyreHeros-Regular-6e" transform="translate(199.999954 0)"/>
    </g>
   </g>
   <g id="patch_152">
    <path d="M 92.939813 145.8 
C 107.642672 145.8 121.745321 139.958492 132.141812 129.562 
C 142.538304 119.165508 148.379813 105.06286 148.379813 90.36 
C 148.379813 75.65714 142.538304 61.554492 132.141812 51.158 
C 121.745321 40.761508 107.642672 34.92 92.939813 34.92 
C 78.236953 34.92 64.134304 40.761508 53.737813 51.158 
C 43.341321 61.554492 37.499813 75.65714 37.499813 90.36 
C 37.499813 105.06286 43.341321 119.165508 53.737813 129.562 
C 64.134304 139.958492 78.236953 145.8 92.939813 145.8 
L 92.939813 145.8 
z
" clip-path="url(#p63bce831bd)" style="fill: none; stroke: #000000; stroke-width: 1.5; stroke-linejoin: miter"/>
   </g>
  </g>
 </g>
 <defs>
  <clipPath id="p63bce831bd">
   <rect x="9.779813" y="7.2" width="166.32" height="166.32"/>
  </clipPath>
 </defs>
</svg>
